<svg xmlns="http://www.w3.org/2000/svg" xmlns:xlink="http://www.w3.org/1999/xlink" id="Calque_1" x="0px" y="0px" viewBox="0 0 694 122" style="enable-background:new 0 0 694 122;" xml:space="preserve"><style type="text/css">	.st0{fill:#FFFFFF;}</style><path class="st0" d="M10.5,111.4c-2.8-1.4-3.4-3.2-1.8-6c2-3.5,4.1-7,6.1-10.6c0.8-1.4,1.8-1.9,3.4-1.9c9.1,0,18.2,0,27.3,0 c1.4,0,2.7-0.1,4-0.6c3.7-1.4,5.8-5.1,5.1-9.1c-0.6-3.7-4.1-6.5-8.2-6.5c-5.2,0-10.4-0.1-15.6,0c-3,0.1-4.2-2.8-2.8-4.9 c1.6-2.5,3.1-5.1,4.5-7.8c0.8-1.5,1.9-2.1,3.6-2.1c12.6,0,25.1,0,37.7,0c3.8,0,6.6-1.8,7.6-5.1c1-3.5,0.5-7.3-2.4-9.6 c-1.4-1.1-3-1.6-4.8-1.6c-8.4,0-16.9-0.1-25.3,0.1c-2.9,0.1-4.3-2.6-2.9-4.9c5.4-9.2,10.7-18.4,16-27.6c1.7-2.9,4.8-2.8,6.5,0 c17.7,30.7,35.5,61.4,53.2,92.1c1.6,2.8,1.2,4.3-1.5,6c-15.4,0-30.7,0-46.1,0c-2.5-4.4-5-8.7-7.5-13.1c-0.7-1.2-2.1-1.1-2.9,0.2 c-2.5,4.3-4.9,8.6-7.4,12.8C41,111.4,25.7,111.4,10.5,111.4z"></path><path class="st0" d="M682.5,70.1c-0.3,0-0.2,0.3-0.3,0.4c-0.8,1.9-1.9,2.7-4,2.7c-11,0-22,0-33,0c-0.4,0-0.9,0-1.3,0 c1.5,7.5,6.7,12.8,13.8,13.8c4.5,0.6,8.9,0,12.6-3.2c0.9-0.8,1.6-1.8,2.2-2.8c1.2-2,3.5-2.7,5.4-1.6c1.9,1.1,2.4,3.4,1.2,5.4 c-2.9,5.2-7.5,8.2-13.2,9.3c-7.8,1.5-15,0.2-21.2-5.1c-6.5-5.7-9.1-13-8.6-21.5c0.4-6.9,2.9-12.9,8.1-17.6 c10.8-9.8,30.6-7.4,36.6,9.7c0.8,2.4,1.4,4.9,1.5,7.5c0,0.2,0,0.4,0.2,0.5C682.5,68.5,682.5,69.3,682.5,70.1z M644,65.5 c10.2,0,20.4,0,30.6,0c-2.2-9.1-7.9-13.9-16-13.6C651.3,52.2,645.1,58,644,65.5z"></path><path class="st0" d="M296.3,47.9c8.6-8.5,24.1-8.3,31.2,3.9c1.1-1.7,2.3-3.2,3.7-4.5c8.9-8.4,26.9-7.9,32.3,9.1 c0.8,2.6,1.2,5.4,1.2,8.1c0,8.9,0,17.9,0,26.8c0,2.2-1.3,3.5-3.3,3.5c-1.5,0-2.7-1-2.9-2.5c-0.1-0.5-0.1-1.1-0.1-1.7 c0-8.9,0-17.9,0-26.8c0-3.3-0.8-6.5-2.4-9.4c-4.9-8.3-15-7.6-20.3-2.6c-3.6,3.4-5,7.7-5.1,12.5c-0.1,9,0,18,0,27.1 c0,2.1-1.3,3.4-3.3,3.3c-1.7-0.1-2.9-1.4-2.9-3.4c0-4.1,0-8.2,0-12.3c0-5,0-9.9,0-14.9c0-2.9-0.5-5.7-1.8-8.4 c-4.7-10-16-9.3-21.5-3.4c-3.1,3.2-4.5,7.2-4.5,11.5c-0.1,9,0,18,0,27c0,1.2-0.1,2.3-1.1,3.2c-1,0.9-2.2,1-3.4,0.5 c-1.2-0.5-1.8-1.4-1.9-2.7c0-0.2,0-0.3,0-0.5c0-15.4,0-30.7,0-46.1c0-1.6,0.7-2.7,2-3.2c1.3-0.4,2.7,0,3.6,1 c0.4,0.5,0.7,1.2,0.7,1.9C296.3,45.9,296.3,46.8,296.3,47.9z"></path><path class="st0" d="M197,94.9c-1.5,0-2.4-0.8-2.9-2.1c-2.3-5.1-4.6-10.3-6.8-15.4c-0.3-0.8-0.8-1-1.6-1c-10.8,0-21.7,0-32.5,0 c-0.9,0-1.2,0.3-1.6,1c-2.2,5-4.4,10.1-6.6,15.1c-0.9,2.1-2.6,2.9-4.4,2.1c-1.7-0.8-2.3-2.6-1.5-4.5c9.1-20.7,18.1-41.4,27.2-62.1 c0.6-1.4,1.6-2.2,3.1-2.2c1.5,0,2.4,0.8,3,2.1c9.1,20.7,18.1,41.4,27.2,62.1C200.9,92.6,199.6,94.9,197,94.9z M169.7,37.1 c-0.3,0-0.3,0.2-0.4,0.3c-4.7,10.6-9.3,21.2-14,31.8c-0.4,0.9,0,0.9,0.7,0.9c9,0,17.9,0,26.9,0c1,0,1.2-0.1,0.8-1.1 c-3.7-8.3-7.3-16.6-10.9-24.9C171.7,41.7,170.7,39.4,169.7,37.1z"></path><path class="st0" d="M508.1,44.6c14,0,25.2,11.3,25.2,25.3c0,13.8-11.4,24.8-25.6,24.8c-13.5,0-24.6-11.4-24.6-25.2 C483,55.8,494.3,44.6,508.1,44.6z M508,87.2c9.5,0.1,17.4-7.7,17.6-17.3c0.2-9.4-7.8-17.6-17.3-17.7c-9.5-0.1-17.6,7.7-17.7,17 C490.5,79.2,498.1,87.1,508,87.2z"></path><path class="st0" d="M436.6,62.2c0-9.4,0-18.8,0-28.2c0-2.8,1.4-4.2,4.2-4.2c12.2,0,24.4,0,36.6,0c3.1,0,5,2.3,4.2,4.9 c-0.5,1.7-1.9,2.6-4.1,2.6c-8.2,0-16.4,0-24.6,0c-2.5,0-5,0-7.4,0c-0.8,0-1.2,0.1-1.2,1.1c0.1,5.8,0,11.7,0,17.5 c0,0.9,0.2,1.1,1.1,1.1c7.6,0,15.1,0,22.7,0c1.9,0,3.3,1,3.8,2.7c0.5,1.6-0.1,3.4-1.5,4.3c-0.8,0.5-1.7,0.6-2.6,0.6 c-7.4,0-14.7,0-22.1,0c-1,0-1.3,0.2-1.3,1.3c0.1,8.2,0,16.5,0,24.7c0,1.9-1,3.3-2.6,3.9c-1.5,0.5-3.2,0.1-4.2-1.2 c-0.7-0.8-0.8-1.7-0.8-2.7C436.6,81.2,436.6,71.7,436.6,62.2z"></path><path class="st0" d="M604.3,44.6c7.5,0.2,13.9,3.3,18.6,9.7c0.8,1.1,1.1,2.2,0.8,3.5c-0.4,1.5-1.4,2.4-2.9,2.7 c-1.6,0.3-2.9-0.2-3.9-1.5c-1.5-2.1-3.3-3.7-5.5-4.9c-9.7-5-20.8,0.3-23.1,11c-1.3,6.3-0.4,12.2,4.1,17.1c6.7,7.3,18.3,6.5,24.3-1.5 c1-1.3,2.1-2.1,3.7-1.9c3,0.4,4.4,3.6,2.5,6.2c-3.1,4.3-7.2,7.3-12.3,8.8c-13.7,4-27.6-4.7-30-18.8c-1.6-9.3,0.5-17.5,7.5-24.2 C592.4,46.6,597.8,44.7,604.3,44.6z"></path><path class="st0" d="M270.4,88.4c-4.4,4.2-9.3,6.4-15.1,6.5c-9.1,0.2-17.2-5.2-20.3-14.8c-0.8-2.5-1.2-5-1.2-7.6 c0-9.1,0-18.1,0-27.2c0-1.5,0.8-2.6,2-3.1c1.3-0.4,2.7-0.1,3.6,1c0.6,0.7,0.7,1.6,0.7,2.5c0,8.8,0,17.6,0,26.3 c0,3.2,0.6,6.4,2.2,9.2c2.8,4.9,7,7.5,12.6,7.4c6-0.1,10.5-3,13.4-8.2c1.4-2.6,2-5.4,2-8.3c0-8.9,0-17.7,0-26.6 c0-2.4,1.6-3.8,3.8-3.4c1.6,0.3,2.5,1.5,2.5,3.2c0,5.4,0,10.9,0,16.3c0,10,0,20,0,29.9c0,2.1-1.2,3.4-3,3.4c-1.9,0-3.2-1.1-3.3-3 C270.4,90.8,270.4,89.7,270.4,88.4z"></path><path class="st0" d="M384,48.4c4.2-3.9,8.8-6,14.3-6.4c9.5-0.6,17.6,4.8,20.8,13.9c0.9,2.7,1.4,5.4,1.4,8.2c0,9.1,0,18.2,0,27.3 c0,2.2-1.3,3.5-3.3,3.4c-1.7-0.1-2.9-1.4-2.9-3.2c0-4.4,0-8.9,0-13.3c0-4.7,0.1-9.3,0-14c-0.1-5.3-1.8-10-6.2-13.3 c-6.8-5.2-16.9-3-21.6,4.5c-1.7,2.7-2.5,5.6-2.5,8.7c0,8.8,0,17.6,0,26.4c0,0.5,0,1-0.1,1.6c-0.3,1.8-1.6,2.8-3.5,2.7 c-1.6-0.1-2.6-1.4-2.7-3.1c0-6.1,0-12.2,0-18.3c0-9.3,0-18.6,0-27.9c0-2,1.3-3.5,3.1-3.5c1.9,0,3.1,1.3,3.2,3.4 C384,46.4,384,47.3,384,48.4z"></path><path class="st0" d="M548.4,69.7c0-7,0-14,0-20.9c0-2.3,1.2-3.8,3.2-4.1c2-0.3,3.6,0.8,4.3,3c0.6,2.1,0.6,2.1,2.6,1 c3.1-1.8,6.4-2.8,10-2.8c2.5,0,4.2,1.5,4.3,3.7c0,2.3-1.6,3.8-4.1,3.9c-6.7,0.3-11.8,5.1-12.5,11.7c-0.2,2-0.2,4-0.2,6 c0,6.7,0,13.3,0,20c0,1.9-1.3,3.4-3.2,3.7c-1.8,0.3-3.5-0.8-4.2-2.5c-0.2-0.5-0.2-1.1-0.2-1.7C548.4,83.6,548.4,76.7,548.4,69.7z"></path><path class="st0" d="M220.2,60.4c0,10.3,0,20.7,0,31c0,2.2-1.2,3.5-3.2,3.5c-1.7,0-2.9-1.2-3.1-2.9c0-0.3,0-0.6,0-0.8 c0-20.6,0-41.1,0-61.7c0-2.2,1-3.6,2.9-3.7c2-0.1,3.4,1.1,3.4,3.1c0,3.1,0,6.1,0,9.2C220.2,45.5,220.2,53,220.2,60.4z"></path></svg>